# xmcd CD database file
#
# Track frame offsets:
#	150
#	11885
#	23197
#	34353
#	45082
#	56194
#	67527
#	80667
#	91997
#	103661
#	115336
#	124774
#	137501
#	148185
#	161225
#	174003
#	184564
#	195626
#
# Disc length: 2759 seconds
#
# Revision: 0
# Processed by: cddbd v1.5.2PL0 Copyright (c) Steve Scherf et al.
# Submitted via: CDex 1.51
#
DISCID=ef0ac512
DTITLE=Patsy Cline - The Solid Gold Collection [CD 2)
DYEAR=1900
DGENRE=Country
TTITLE0=In Care of the Blues
TTITLE1=Hungry for Love
TTITLE2=I Can't Forget
TTITLE3=I Don't Wanta
TTITLE4=Stop the World (and Let Me Off)
TTITLE5=Cry Not for Me
TTITLE6=If I Could See the World (Through the Eyes of a Child)
TTITLE7=Just Out of Reach
TTITLE8=Let the Teardrops Fall
TTITLE9=Never No More
TTITLE10=Love, Love, Love Me Honey Do
TTITLE11=Yes, I Understand
TTITLE12=Gotta Lot of Rhythm in My Soul
TTITLE13=Life's Railway to Heaven
TTITLE14=Just a Closer Walk With Thee
TTITLE15=Lovesick Blues
TTITLE16=There He Goes
TTITLE17=Crazy Dreams
EXTD=
EXTT0=
EXTT1=
EXTT2=
EXTT3=
EXTT4=
EXTT5=
EXTT6=
EXTT7=
EXTT8=
EXTT9=
EXTT10=
EXTT11=
EXTT12=
EXTT13=
EXTT14=
EXTT15=
EXTT16=
EXTT17=
PLAYORDER=
